<?xml version="1.0" standalone="no"?>
<!DOCTYPE svg PUBLIC "-//W3C//DTD SVG 20010904//EN"
 "http://www.w3.org/TR/2001/REC-SVG-20010904/DTD/svg10.dtd">
<svg version="1.0" xmlns="http://www.w3.org/2000/svg"
 width="649.000000pt" height="382.000000pt" viewBox="0 0 649.000000 382.000000"
 preserveAspectRatio="xMidYMid meet">

<g transform="translate(0.000000,382.000000) scale(0.100000,-0.100000)"
fill="#000000" stroke="none">
<path d="M2925 3771 c-312 -52 -576 -233 -719 -493 -20 -36 -49 -101 -65 -144
l-29 -79 -201 -5 c-220 -5 -224 -6 -219 -65 5 -53 22 -55 352 -52 l298 2 27
80 c33 97 51 132 107 211 246 348 761 396 1072 100 139 -132 211 -289 220
-478 2 -59 2 -118 -2 -132 l-6 -26 -560 0 c-309 0 -561 -4 -564 -9 -10 -16 56
-131 103 -180 150 -154 409 -175 578 -46 32 24 71 60 86 79 l28 36 449 0 449
0 15 22 c23 32 20 54 -10 77 -24 19 -40 21 -168 21 l-141 0 -1 128 c0 156 -24
263 -89 400 -56 118 -113 198 -201 283 -180 172 -402 266 -649 274 -60 2 -132
0 -160 -4z"/>
<path d="M2939 3236 c-67 -19 -142 -63 -193 -112 -50 -48 -106 -138 -106 -171
l0 -23 368 1 c202 1 391 4 420 7 l52 7 -30 63 c-40 85 -112 154 -206 199 -66
32 -86 36 -167 39 -57 2 -110 -2 -138 -10z"/>
<path d="M1735 2683 c-32 -8 -45 -23 -45 -52 0 -55 3 -56 220 -61 l201 -5 33
-87 c113 -300 360 -523 672 -604 135 -36 326 -38 457 -6 184 45 351 139 477
266 l64 66 253 0 c240 0 254 1 273 20 24 24 25 49 6 76 -14 18 -31 19 -389 22
l-375 3 -58 -51 c-173 -148 -414 -205 -642 -150 -246 59 -440 244 -517 495
l-22 70 -294 1 c-162 1 -303 0 -314 -3z"/>
<path d="M6090 2049 c-44 -18 -89 -59 -117 -106 -21 -37 -27 -59 -27 -107 1
-247 336 -321 448 -99 23 46 21 153 -4 202 -22 44 -70 88 -117 108 -37 15
-146 16 -183 2z m184 -58 c74 -46 101 -163 58 -248 -54 -106 -200 -120 -281
-28 -29 34 -51 90 -51 130 1 32 36 102 65 127 58 50 145 58 209 19z"/>
<path d="M6094 1937 c-2 -7 -3 -60 -2 -118 3 -99 4 -104 26 -107 20 -3 22 1
22 42 0 50 10 61 45 52 16 -4 27 -18 37 -48 13 -42 40 -60 59 -41 11 11 -7 77
-26 97 -12 12 -11 16 5 31 26 23 25 60 0 85 -16 16 -33 20 -90 20 -49 0 -72
-4 -76 -13z m121 -56 c0 -18 -7 -26 -27 -32 -33 -9 -38 -4 -38 33 0 27 3 29
33 26 26 -2 32 -7 32 -27z"/>
<path d="M5574 1647 c-2 -7 -3 -247 -2 -533 3 -500 4 -520 23 -554 34 -59 74
-71 250 -77 l155 -6 0 91 0 92 -54 0 c-39 0 -60 6 -80 21 l-26 21 2 261 3 262
49 6 c67 7 106 50 106 114 l0 45 -80 0 -80 0 0 94 c0 105 -15 136 -76 162 -44
18 -183 19 -190 1z"/>
<path d="M365 1396 c-215 -54 -339 -244 -321 -494 20 -278 189 -432 471 -432
165 0 297 50 379 141 36 40 86 124 86 144 0 3 -56 5 -125 5 -124 0 -124 0
-159 -30 -48 -43 -96 -60 -168 -60 -114 0 -195 67 -201 166 l-2 39 339 3 339
2 -6 89 c-17 240 -123 377 -329 426 -75 18 -234 18 -303 1z m248 -200 c18 -7
42 -25 55 -39 24 -25 55 -111 45 -121 -4 -3 -93 -6 -200 -6 -148 0 -193 3
-193 13 0 56 49 128 105 153 39 17 147 18 188 0z"/>
<path d="M1334 1390 c-87 -23 -180 -68 -216 -107 -15 -15 -37 -50 -50 -78 -22
-49 -23 -60 -26 -388 l-3 -338 133 3 133 3 5 320 c6 363 4 356 85 395 81 39
209 14 252 -48 16 -24 19 -60 23 -347 l5 -320 130 0 130 0 5 320 c6 361 3 350
84 390 84 42 196 27 251 -35 19 -21 20 -40 25 -309 5 -311 6 -312 64 -347 24
-14 52 -19 121 -19 l90 0 3 240 c4 374 -13 482 -91 563 -121 127 -448 162
-629 68 l-48 -25 -44 25 c-96 54 -297 70 -432 34z"/>
<path d="M2943 1395 c-155 -42 -259 -144 -297 -290 -20 -76 -21 -243 -1 -318
41 -156 145 -261 300 -302 122 -31 300 -16 410 36 85 40 177 140 200 217 6 22
6 22 -119 22 l-126 0 -37 -33 c-53 -46 -84 -57 -158 -57 -77 0 -110 11 -153
53 -33 32 -70 126 -57 147 4 6 126 10 341 10 l334 0 0 63 c-1 130 -44 257
-115 336 -42 46 -131 95 -210 116 -74 19 -241 19 -312 0z m262 -205 c44 -21
77 -69 90 -127 l7 -33 -201 0 c-226 0 -218 -3 -182 75 33 72 88 104 180 105
45 0 77 -6 106 -20z"/>
<path d="M3952 1400 c-160 -38 -264 -109 -304 -208 -22 -55 -23 -67 -23 -382
l0 -325 135 0 135 0 5 326 c5 309 6 328 25 349 53 60 167 77 245 38 85 -44 84
-41 90 -365 l5 -285 32 -28 c35 -32 87 -43 173 -38 l55 3 3 260 c5 435 -21
525 -170 601 -108 55 -298 80 -406 54z"/>
<path d="M4863 1395 c-156 -42 -260 -145 -299 -295 -23 -92 -16 -283 15 -361
42 -111 129 -198 238 -240 79 -30 261 -38 350 -16 124 32 227 103 277 191 51
89 54 86 -88 86 l-126 0 -37 -33 c-53 -46 -84 -57 -158 -57 -77 0 -110 11
-153 53 -33 32 -70 126 -57 147 4 6 126 10 341 10 l334 0 0 68 c0 127 -44 252
-115 331 -42 46 -131 95 -210 116 -74 19 -241 19 -312 0z m264 -206 c45 -22
74 -63 88 -126 l7 -33 -202 0 -202 0 7 33 c22 97 85 146 194 147 46 0 77 -6
108 -21z"/>
<path d="M2168 329 c-15 -8 -18 -25 -18 -99 0 -108 10 -120 105 -120 67 0 105
18 105 51 0 23 -25 26 -34 4 -5 -13 -20 -15 -73 -13 l-68 3 0 75 0 75 68 3
c62 3 69 1 74 -18 6 -23 26 -22 31 2 6 33 -26 48 -101 48 -40 0 -80 -5 -89
-11z"/>
<path d="M2464 315 c-19 -30 -17 -166 4 -187 16 -16 130 -23 165 -9 27 10 27
11 27 104 0 59 -4 97 -12 105 -7 7 -43 12 -90 12 -72 0 -79 -2 -94 -25z m164
-87 l3 -78 -71 0 -70 0 0 73 c0 41 3 77 7 81 4 4 34 6 68 4 l60 -3 3 -77z"/>
<path d="M2767 333 c-4 -3 -7 -53 -7 -110 0 -84 3 -103 15 -103 11 0 15 18 17
81 l3 80 43 -37 43 -37 32 29 c17 16 33 32 35 37 2 4 8 5 13 1 5 -3 9 -39 9
-80 0 -59 3 -74 15 -74 12 0 15 18 15 104 0 65 -4 107 -11 112 -6 3 -30 -12
-53 -35 -23 -22 -49 -41 -57 -41 -8 0 -33 18 -54 40 -40 41 -47 45 -58 33z"/>
<path d="M3094 326 c-3 -9 -4 -50 -2 -91 5 -99 22 -119 108 -120 85 0 102 19
107 122 4 78 -5 112 -26 99 -6 -4 -11 -39 -11 -85 0 -46 -5 -82 -12 -89 -16
-16 -103 -15 -116 1 -6 7 -12 48 -14 92 -2 52 -7 80 -15 83 -7 2 -16 -3 -19
-12z"/>
<path d="M3407 333 c-4 -3 -7 -53 -7 -110 0 -85 3 -103 15 -103 12 0 15 15 15
75 0 41 3 75 6 75 3 0 37 -34 76 -75 38 -41 76 -75 84 -75 12 0 14 19 12 107
-2 74 -7 108 -15 111 -10 3 -13 -16 -13 -72 0 -42 -4 -76 -9 -76 -6 0 -40 34
-78 75 -68 76 -74 80 -86 68z"/>
<path d="M3705 328 c-3 -8 -4 -57 -3 -109 2 -76 6 -94 18 -94 12 0 15 18 15
104 0 75 -4 106 -12 108 -7 3 -15 -2 -18 -9z"/>
<path d="M3846 324 c-12 -11 -16 -36 -16 -95 0 -104 13 -119 103 -119 40 0 70
5 85 16 25 17 30 54 7 54 -8 0 -15 -7 -15 -15 0 -22 -135 -22 -144 1 -11 28
-6 120 6 132 7 7 38 12 71 12 50 0 60 -3 64 -20 7 -28 33 -25 33 3 0 38 -19
47 -101 47 -57 0 -82 -4 -93 -16z"/>
<path d="M4166 319 c-25 -19 -26 -25 -26 -110 0 -72 3 -89 15 -89 11 0 15 12
15 45 l0 45 69 0 70 0 3 -42 c2 -30 8 -43 18 -43 12 0 15 16 15 88 0 81 -2 90
-24 108 -33 27 -119 26 -155 -2z m125 -19 c11 -6 19 -21 19 -35 0 -24 -3 -25
-65 -25 -52 0 -67 3 -72 17 -14 37 70 68 118 43z"/>
<path d="M4456 324 c-12 -11 -16 -36 -16 -99 0 -75 2 -85 22 -99 30 -21 136
-21 166 0 25 17 30 54 7 54 -8 0 -15 -7 -15 -15 0 -12 -14 -15 -70 -15 l-71 0
3 78 3 77 62 3 c54 3 63 0 73 -18 14 -27 30 -26 30 3 0 38 -19 47 -101 47 -57
0 -82 -4 -93 -16z"/>
<path d="M4750 231 c0 -93 2 -111 15 -111 13 0 15 16 13 107 -2 74 -7 108 -15
111 -10 3 -13 -23 -13 -107z"/>
<path d="M4886 318 c-21 -30 -22 -156 -2 -184 12 -16 27 -19 96 -19 102 0 110
8 110 110 0 104 -11 115 -110 115 -70 0 -81 -2 -94 -22z m162 -90 l3 -78 -71
0 -70 0 0 73 c0 41 3 77 7 81 4 4 34 6 68 4 l60 -3 3 -77z"/>
<path d="M5187 333 c-4 -3 -7 -53 -7 -110 0 -85 3 -103 15 -103 12 0 15 15 15
75 0 41 3 75 7 75 3 0 38 -34 76 -75 38 -41 75 -75 83 -75 12 0 14 19 12 107
-2 74 -7 108 -15 111 -10 3 -13 -16 -13 -72 0 -42 -4 -76 -9 -76 -5 0 -40 34
-77 75 -67 75 -75 81 -87 68z"/>
<path d="M5487 333 c-4 -3 -7 -50 -7 -103 0 -72 4 -101 14 -109 9 -8 46 -11
102 -9 75 3 89 6 92 21 3 15 -6 17 -82 17 l-86 0 0 30 0 30 85 0 c69 0 85 3
85 15 0 12 -16 15 -85 15 l-85 0 0 35 0 35 85 0 c69 0 85 3 85 15 0 12 -18 15
-98 15 -54 0 -102 -3 -105 -7z"/>
<path d="M5810 320 c-26 -26 -26 -64 0 -90 15 -15 33 -20 79 -20 66 0 94 -18
71 -45 -9 -11 -33 -15 -86 -15 -72 0 -101 -13 -73 -32 8 -5 47 -7 88 -6 63 3
76 7 92 27 45 56 12 101 -74 101 -37 0 -61 5 -71 16 -36 35 -4 54 94 54 53 0
71 3 68 13 -3 8 -32 13 -86 15 -71 2 -84 0 -102 -18z"/>
</g>
</svg>
