<?xml version="1.0" standalone="no"?>
<!DOCTYPE svg PUBLIC "-//W3C//DTD SVG 20010904//EN"
 "http://www.w3.org/TR/2001/REC-SVG-20010904/DTD/svg10.dtd">
<svg version="1.0" xmlns="http://www.w3.org/2000/svg"
 width="654.000000pt" height="463.000000pt" viewBox="0 0 654.000000 463.000000"
 preserveAspectRatio="xMidYMid meet">

<g transform="translate(0.000000,463.000000) scale(0.100000,-0.100000)"
fill="#000000" stroke="none">
<path d="M3216 4573 c-4 -5 -51 -11 -104 -15 -123 -8 -201 -21 -229 -36 -12
-7 -38 -12 -57 -12 -19 0 -50 -8 -68 -18 -18 -10 -44 -21 -58 -24 -73 -16
-213 -72 -230 -93 -6 -8 -27 -17 -45 -21 -19 -3 -41 -15 -51 -25 -9 -10 -27
-19 -39 -19 -23 0 -125 -62 -183 -112 -18 -15 -39 -28 -47 -28 -38 0 -165
-103 -328 -266 -142 -142 -207 -219 -207 -245 0 -21 -15 -44 -76 -117 -38 -47
-140 -255 -149 -304 -3 -22 -13 -39 -23 -42 -20 -7 -42 -50 -42 -83 0 -32 -75
-179 -96 -187 -9 -3 -199 -6 -421 -6 -445 1 -412 5 -485 -63 -62 -58 -63 -111
-3 -175 19 -20 41 -45 50 -54 14 -17 60 -18 708 -18 763 0 728 -3 741 62 4 18
10 60 15 92 5 45 12 63 29 74 15 10 22 25 22 47 0 21 13 52 35 85 20 29 35 65
35 80 0 16 5 32 10 35 6 4 22 30 37 58 31 62 50 88 126 172 31 36 57 69 57 74
0 14 249 261 274 272 12 5 39 23 61 39 54 41 110 70 133 70 11 0 25 7 33 16
26 31 170 94 217 94 13 0 33 11 46 25 20 22 32 25 89 25 36 0 69 5 72 10 3 6
27 10 53 10 26 1 58 7 72 15 36 21 307 21 357 0 19 -8 64 -15 99 -15 34 0 66
-4 69 -10 3 -5 26 -10 49 -10 26 0 53 -7 67 -18 35 -27 109 -52 151 -52 27 0
40 -6 48 -20 7 -13 21 -20 40 -20 19 0 42 -12 66 -32 20 -18 66 -48 104 -67
37 -20 85 -48 106 -62 42 -29 272 -264 342 -351 48 -58 112 -163 112 -183 0
-7 8 -23 19 -36 41 -53 101 -196 101 -241 0 -18 7 -29 19 -33 17 -5 20 -18 23
-98 2 -51 9 -105 15 -122 6 -16 16 -46 22 -66 14 -45 15 -316 1 -324 -6 -3
-10 -26 -10 -49 0 -29 -7 -52 -21 -70 l-20 -26 -1265 0 -1264 0 0 -47 c0 -36
11 -68 49 -144 27 -53 61 -109 75 -124 14 -15 26 -32 26 -38 0 -22 177 -190
230 -218 30 -17 66 -36 80 -43 70 -38 165 -77 198 -82 20 -3 41 -10 47 -15 13
-13 522 -12 530 1 3 6 14 10 25 10 23 0 233 104 250 125 7 8 18 15 24 15 6 0
72 61 146 135 l135 135 1008 0 1008 0 34 37 c33 36 35 42 35 110 0 57 -4 76
-18 90 -11 10 -22 26 -25 36 -6 16 -31 17 -326 17 l-320 0 -20 26 c-27 35 -30
155 -4 209 16 33 16 38 0 83 -13 35 -17 80 -17 184 0 80 -4 139 -10 143 -5 3
-10 30 -10 60 0 42 -4 57 -19 67 -13 10 -20 29 -23 68 -3 30 -15 80 -26 110
-12 30 -22 66 -22 80 0 14 -16 42 -35 65 -23 26 -35 50 -35 70 0 16 -9 45 -20
63 -11 18 -20 41 -20 51 0 10 -8 29 -19 42 -10 13 -28 44 -41 69 -12 25 -29
53 -38 63 -8 9 -20 25 -26 36 -27 46 -65 98 -85 115 -11 11 -21 31 -21 45 0
20 -38 63 -172 196 -95 93 -189 179 -208 190 -59 34 -69 41 -88 58 -10 10 -23
17 -29 17 -5 0 -20 12 -34 26 -13 14 -50 39 -81 55 -31 16 -59 33 -63 38 -9
15 -174 91 -198 91 -12 0 -42 14 -66 30 -40 27 -61 35 -84 31 -5 -1 -23 5 -40
13 -18 8 -45 17 -62 20 -84 15 -124 25 -165 41 -25 9 -62 20 -83 22 -20 3 -40
9 -43 14 -3 5 -43 9 -89 9 -46 0 -87 5 -90 10 -7 12 -318 14 -329 3z"/>
<path d="M3095 3320 c-3 -5 -20 -10 -38 -10 -32 0 -202 -81 -267 -126 -58 -42
-240 -226 -275 -279 -18 -27 -43 -72 -55 -100 -12 -27 -31 -69 -41 -93 -24
-54 -24 -79 0 -92 13 -7 327 -10 948 -10 824 0 931 2 951 16 25 17 27 32 11
83 -16 49 -79 180 -104 215 -33 47 -208 226 -221 226 -6 0 -17 7 -25 16 -7 8
-36 27 -63 41 -28 14 -58 31 -66 38 -8 7 -26 16 -40 20 -14 4 -36 16 -49 26
-13 11 -39 19 -57 19 -18 0 -36 5 -39 10 -4 6 -110 10 -285 10 -175 0 -281 -4
-285 -10z"/>
<path d="M276 2029 c-14 -17 -26 -39 -26 -50 0 -11 -5 -28 -12 -38 -16 -27 14
-91 64 -136 l38 -35 430 0 c401 0 431 -1 437 -17 4 -10 15 -27 25 -37 10 -11
18 -31 18 -44 0 -13 6 -38 14 -55 7 -18 19 -52 27 -77 7 -25 20 -56 30 -70 9
-14 20 -36 24 -50 12 -38 83 -178 95 -185 5 -3 19 -27 31 -52 11 -25 29 -55
40 -66 10 -12 19 -26 19 -32 0 -7 10 -20 21 -31 20 -18 59 -71 86 -117 15 -27
335 -347 346 -347 5 0 20 -9 34 -20 14 -11 34 -20 44 -20 11 0 36 -16 58 -35
21 -19 42 -35 46 -35 5 0 17 -8 28 -17 28 -26 97 -65 232 -131 182 -90 212
-102 251 -102 21 0 49 -9 67 -22 26 -18 42 -21 109 -19 72 2 80 0 101 -23 20
-22 34 -25 117 -31 121 -8 496 -8 622 0 83 5 98 9 103 25 6 20 61 37 87 27 7
-2 28 2 47 9 18 8 46 14 62 14 15 0 30 4 33 9 3 5 18 11 33 14 94 20 122 27
154 39 20 7 43 19 51 26 8 6 62 35 119 63 57 28 118 61 134 73 17 12 46 30 66
39 19 9 44 26 55 38 10 11 44 34 74 49 30 15 66 40 79 54 14 14 29 26 35 26
15 0 246 232 246 246 0 6 8 18 18 27 17 15 72 17 591 17 l572 0 34 38 c32 33
35 43 35 96 0 53 -3 62 -35 97 -19 22 -35 44 -35 49 0 7 -290 10 -844 10
l-844 0 -44 -46 c-23 -25 -55 -52 -70 -60 -15 -8 -49 -35 -75 -60 -26 -25 -68
-56 -93 -69 -25 -13 -56 -34 -69 -48 -13 -15 -38 -29 -55 -33 -17 -3 -56 -19
-86 -34 -56 -28 -88 -40 -175 -67 -27 -8 -58 -19 -67 -24 -10 -5 -40 -9 -68
-9 -41 0 -54 -5 -72 -25 l-22 -25 -286 0 -286 0 -34 25 c-24 17 -47 25 -76 25
-24 0 -46 5 -49 10 -3 6 -18 10 -33 10 -15 0 -47 7 -72 16 -62 21 -321 149
-345 171 -11 10 -38 31 -59 47 -22 16 -55 45 -74 63 -19 19 -46 40 -61 47 -31
16 -161 149 -161 165 0 5 -15 25 -33 43 -34 34 -97 123 -97 137 0 4 -8 15 -18
24 -9 8 -40 64 -68 124 -81 169 -94 202 -94 229 0 14 -11 45 -25 70 -14 25
-25 60 -25 79 0 24 -6 38 -19 45 -13 7 -261 10 -734 10 l-715 0 -26 -31z"/>
</g>
</svg>
